<?xml version="1.0" standalone="no"?>
<!DOCTYPE svg PUBLIC "-//W3C//DTD SVG 20010904//EN"
 "http://www.w3.org/TR/2001/REC-SVG-20010904/DTD/svg10.dtd">
<svg version="1.0" xmlns="http://www.w3.org/2000/svg"
 width="905.000000pt" height="1280.000000pt" viewBox="0 0 905.000000 1280.000000"
 preserveAspectRatio="xMidYMid meet">

<g transform="translate(0.000000,1280.000000) scale(0.100000,-0.100000)"
fill="#000000" stroke="none">
<path d="M4883 12687 c6 -15 -16 -49 -29 -45 -13 3 -58 -13 -65 -24 -10 -15
-75 19 -87 46 -12 27 -37 35 -44 14 -4 -10 -13 -10 -44 0 -35 11 -40 10 -53
-8 -10 -15 -17 -17 -31 -10 -27 14 -36 -7 -15 -30 16 -17 16 -22 3 -42 -7 -13
-13 -34 -12 -48 1 -13 -6 -30 -15 -37 -25 -19 -36 -15 -16 7 17 19 17 20 -17
34 -19 8 -46 18 -61 21 -19 5 -26 13 -24 29 1 15 -4 21 -18 21 -15 0 -20 -7
-20 -25 0 -14 -4 -28 -10 -32 -5 -4 -10 -18 -10 -30 0 -19 -5 -23 -33 -22 -18
0 -31 -5 -29 -11 12 -32 -30 -56 -62 -36 -12 8 -12 12 -2 25 20 24 -11 21 -32
-2 -22 -24 -21 -30 6 -34 12 -2 22 -10 22 -18 0 -9 -7 -14 -20 -12 -11 2 -29
3 -40 3 -10 0 -25 4 -31 10 -8 7 -14 7 -18 0 -4 -6 -13 -8 -20 -5 -7 3 -19 -2
-26 -11 -8 -10 -9 -15 -1 -15 20 0 11 -46 -14 -70 -14 -13 -25 -31 -25 -41 0
-12 -11 -19 -37 -24 -33 -6 -40 -4 -60 22 -17 21 -23 24 -23 11 0 -9 -5 -20
-10 -23 -7 -4 -9 2 -5 17 5 20 0 29 -34 51 -69 46 -137 30 -115 -27 3 -9 1
-16 -4 -16 -15 0 -28 -90 -14 -99 6 -4 4 -14 -8 -29 -22 -27 -34 -29 -20 -3 5
11 10 22 10 25 0 3 -28 6 -62 8 -54 3 -63 6 -60 21 4 21 -25 34 -40 19 -8 -8
-8 -18 0 -36 9 -20 8 -25 -4 -30 -11 -4 -12 -10 -4 -25 14 -27 14 -28 -21 -35
-17 -3 -28 -10 -24 -16 12 -20 -15 -50 -47 -50 -26 0 -29 2 -18 15 7 9 10 19
6 23 -10 9 -48 -37 -40 -49 3 -5 17 -9 30 -9 16 0 24 -5 21 -12 -2 -7 -16 -13
-30 -13 -14 -1 -29 -4 -33 -8 -4 -4 -18 -4 -30 -1 -15 4 -24 2 -24 -6 0 -6 -4
-9 -9 -6 -13 8 -37 -24 -25 -32 20 -13 23 -42 9 -69 -8 -15 -15 -39 -16 -53
l0 -25 -10 24 c-7 17 -15 22 -29 18 -15 -4 -20 0 -20 15 0 13 5 18 14 15 18
-7 36 12 36 38 0 13 -13 26 -40 39 -22 11 -40 26 -40 35 0 10 3 12 8 5 9 -14
42 -26 42 -15 0 28 -137 59 -182 42 -30 -11 -38 -47 -17 -68 6 -6 7 -13 2 -16
-14 -9 -3 -63 16 -84 15 -16 16 -22 4 -48 -12 -28 -13 -28 -11 -5 3 23 0 25
-30 22 -18 -2 -44 -10 -59 -17 -25 -13 -28 -13 -35 5 -4 11 -14 20 -23 20 -23
0 -30 -28 -13 -48 9 -9 13 -23 11 -30 -3 -7 1 -19 7 -27 10 -13 9 -19 -8 -33
-15 -13 -19 -25 -15 -46 6 -30 -8 -46 -39 -46 -11 0 -15 5 -12 15 4 8 2 15 -4
15 -11 0 -22 -23 -22 -47 0 -11 7 -13 30 -8 23 5 30 3 30 -9 0 -9 -11 -18 -25
-22 -14 -3 -25 -10 -25 -15 0 -5 -8 -9 -18 -9 -30 0 -83 -74 -59 -83 9 -4 9
-6 -1 -6 -8 -1 -22 9 -31 20 -16 20 -18 20 -33 5 -9 -9 -21 -16 -26 -16 -13 0
-45 -68 -38 -79 8 -13 -19 -21 -66 -21 -50 0 -98 -32 -98 -65 0 -12 7 -25 15
-29 8 -3 15 -12 15 -21 0 -32 45 -89 62 -79 5 3 7 -12 7 -33 -1 -21 -3 -29 -6
-18 -9 36 -17 35 -68 -5 -44 -35 -50 -37 -61 -22 -10 13 -15 14 -25 5 -9 -9
-8 -19 5 -47 9 -19 22 -36 28 -38 7 -3 5 -7 -6 -11 -13 -5 -19 -1 -23 13 -8
31 -82 28 -122 -6 -36 -30 -39 -47 -11 -67 11 -8 17 -17 14 -20 -8 -8 18 -67
29 -67 15 0 33 -24 41 -53 4 -16 2 -27 -4 -27 -5 0 -10 9 -10 20 0 29 -21 25
-67 -14 -37 -32 -41 -34 -56 -18 -13 12 -20 13 -28 5 -15 -15 -4 -44 20 -50
11 -3 17 -11 15 -18 -3 -8 4 -19 16 -25 l21 -11 -21 -30 c-17 -23 -18 -29 -6
-29 23 0 24 -43 1 -63 -18 -17 -20 -17 -23 -3 -6 28 -22 17 -22 -15 0 -26 3
-30 18 -24 36 15 52 17 52 6 0 -6 -9 -16 -20 -23 -11 -7 -20 -17 -20 -23 0
-16 -64 -55 -91 -55 -28 0 -69 -37 -69 -63 0 -9 9 -21 20 -27 11 -6 18 -15 15
-19 -8 -14 24 -69 44 -76 19 -6 36 -65 19 -65 -4 0 -8 9 -8 20 0 29 -20 24
-65 -15 -41 -36 -55 -42 -55 -25 0 6 -9 10 -20 10 -27 0 -27 -37 0 -45 11 -4
19 -13 18 -20 -2 -8 6 -20 16 -28 19 -14 19 -16 3 -40 -14 -22 -14 -26 -2 -31
22 -8 18 -53 -5 -66 -16 -9 -20 -8 -20 5 0 8 -4 15 -10 15 -13 0 -13 -57 0
-65 5 -3 10 -2 10 3 0 14 32 24 42 14 4 -4 -10 -27 -33 -50 -46 -48 -58 -96
-24 -97 27 0 61 -70 44 -91 -9 -11 -8 -15 5 -20 9 -3 13 -11 9 -17 -4 -6 -11
-3 -19 7 -11 16 -17 16 -51 5 -74 -24 -108 -90 -58 -109 14 -5 24 -13 23 -17
-7 -19 51 -70 71 -63 7 3 21 -24 21 -40 -1 -11 -3 -11 -11 3 -10 18 -12 18
-30 1 -11 -10 -29 -32 -40 -51 -18 -28 -23 -31 -40 -20 -16 10 -21 9 -29 -3
-10 -16 12 -40 37 -40 7 0 10 -6 7 -14 -4 -10 2 -16 18 -18 24 -4 25 -8 13
-45 -4 -17 -2 -23 9 -23 21 0 29 -35 14 -59 -15 -25 -28 -27 -28 -6 0 8 -4 15
-10 15 -15 0 -12 -23 5 -46 14 -18 16 -18 29 -1 7 9 18 17 25 17 13 0 15 -26
2 -35 -14 -8 -38 -59 -46 -95 -4 -16 -10 -30 -15 -30 -12 0 -33 -58 -26 -75 3
-8 15 -15 26 -15 11 0 20 -6 20 -14 0 -16 66 -50 80 -41 6 3 10 -1 10 -9 0 -9
-6 -16 -13 -16 -7 0 -23 -20 -34 -43 -16 -34 -26 -44 -45 -43 -35 1 -29 -28 7
-34 17 -3 29 -10 27 -15 -1 -6 6 -11 16 -13 15 -2 18 -10 16 -33 -2 -17 0 -28
5 -25 16 11 33 -23 26 -51 -6 -27 -7 -27 -21 -9 -14 19 -14 19 -14 -1 0 -11 6
-26 14 -32 11 -10 16 -8 21 8 3 12 13 21 21 21 16 0 19 -21 4 -36 -5 -5 -11
-25 -12 -44 -4 -45 -43 -83 -68 -68 -14 9 -23 5 -48 -23 -56 -61 -50 -137 8
-122 11 3 20 1 20 -3 0 -15 59 -36 83 -30 16 4 29 -1 40 -14 23 -28 21 -37 -3
-15 -19 17 -20 17 -28 -6 -5 -13 -13 -43 -16 -65 -6 -35 -11 -41 -27 -37 -12
3 -21 -1 -25 -12 -9 -21 10 -33 42 -27 15 3 24 0 24 -8 0 -8 8 -10 24 -6 21 5
25 2 30 -29 4 -20 11 -33 16 -30 20 12 40 -8 40 -42 0 -31 -2 -34 -15 -23 -23
19 -31 3 -10 -20 23 -26 33 -25 37 2 2 13 10 24 20 26 14 3 16 -6 13 -67 -3
-53 0 -73 11 -82 13 -10 17 -10 25 2 8 12 10 12 8 -1 -4 -36 0 -43 16 -30 9 7
19 9 23 5 4 -4 1 -10 -5 -12 -26 -9 -8 -40 32 -58 20 -8 20 -9 -1 -12 -26 -5
-46 -44 -33 -64 5 -8 9 -27 9 -42 0 -28 26 -85 44 -99 6 -4 5 -17 -2 -34 -11
-24 -10 -30 9 -50 13 -14 19 -29 15 -40 -3 -9 -2 -22 3 -28 5 -6 12 -37 15
-68 6 -52 5 -58 -12 -58 -10 0 -26 -8 -36 -18 -15 -17 -15 -23 -1 -62 8 -23
15 -54 15 -69 0 -18 15 -42 47 -74 39 -40 52 -47 73 -42 28 6 60 39 60 61 0
22 10 17 57 -31 l44 -46 -46 -20 c-25 -11 -54 -18 -64 -14 -13 4 -20 -1 -24
-17 -8 -28 -4 -32 61 -53 51 -16 80 -45 67 -66 -4 -5 1 -21 10 -35 14 -22 17
-23 31 -9 21 20 30 19 48 -7 11 -16 13 -25 5 -35 -6 -7 -15 -10 -20 -7 -5 3
-14 -8 -20 -25 -7 -20 -18 -31 -30 -31 -23 0 -42 -34 -34 -60 5 -15 2 -17 -15
-13 -16 4 -20 1 -20 -19 0 -30 29 -69 36 -50 8 18 19 15 53 -17 19 -18 29 -35
25 -44 -3 -8 2 -29 10 -46 9 -16 16 -39 16 -51 0 -11 6 -20 14 -20 22 0 28
-29 11 -53 -8 -12 -15 -32 -15 -44 0 -13 -4 -23 -10 -23 -5 0 -10 15 -10 34 0
19 -4 37 -9 40 -12 8 -64 -73 -57 -89 2 -7 -3 -23 -12 -36 -21 -31 -23 -59 -3
-67 9 -3 20 -11 24 -19 4 -7 14 -13 22 -13 27 0 36 -36 23 -87 -14 -53 -27
-66 -77 -73 -42 -6 -80 -62 -60 -86 9 -10 9 -18 2 -25 -8 -8 -13 -7 -17 0 -4
6 -15 11 -25 11 -28 0 -36 -96 -11 -127 18 -23 18 -23 31 -3 16 22 59 18 59
-6 0 -7 16 -30 37 -50 30 -30 34 -39 25 -53 -21 -28 -25 -43 -15 -50 17 -11
30 -107 20 -154 -1 -6 5 -11 13 -12 17 0 60 -27 60 -37 0 -15 -33 -38 -56 -38
-13 0 -24 -4 -24 -9 0 -4 -12 -6 -26 -3 -25 4 -26 3 -20 -21 4 -16 1 -27 -7
-30 -8 -3 -1 -14 18 -31 30 -26 30 -26 10 -42 -28 -22 -126 -65 -135 -59 -4 3
-13 -2 -20 -10 -7 -8 -20 -15 -29 -15 -12 0 -17 -10 -17 -39 -1 -36 1 -41 28
-46 22 -5 30 -14 35 -36 3 -18 12 -29 22 -29 17 0 41 -42 41 -72 0 -11 -8 -33
-17 -51 -9 -18 -18 -45 -20 -62 -11 -118 -15 -132 -45 -149 -16 -10 -34 -29
-40 -42 -13 -28 -39 -31 -63 -8 -26 26 -43 10 -49 -48 -3 -29 -15 -240 -26
-468 -25 -521 -28 -560 -45 -865 -8 -137 -19 -360 -25 -495 -6 -135 -15 -279
-19 -320 -5 -41 -9 -117 -10 -168 l-2 -92 25 12 c20 9 26 18 26 45 0 31 2 33
27 27 16 -4 31 -11 34 -16 3 -6 82 26 175 70 93 44 217 103 276 130 l106 50
134 -64 c111 -53 134 -61 137 -48 3 18 -22 590 -39 859 -6 88 -22 392 -36 675
-22 451 -27 518 -43 540 -40 57 -239 93 -393 71 -84 -12 -182 -50 -191 -75 -3
-8 -16 -11 -36 -8 -24 3 -31 9 -31 27 0 18 6 24 27 27 36 4 41 26 6 30 -22 2
-29 9 -31 31 -3 24 0 27 27 27 21 0 31 -5 31 -15 0 -20 3 -19 45 9 105 71 424
68 527 -6 l28 -19 0 41 c0 34 -6 48 -31 71 -29 27 -111 59 -151 59 -24 0 -23
17 2 25 34 11 60 54 60 100 0 39 3 44 33 55 50 20 77 50 77 84 0 17 11 51 25
75 30 52 30 51 3 51 -15 0 -29 11 -40 30 -19 34 -14 39 42 45 26 2 63 18 103
45 34 22 108 63 164 90 114 55 126 70 100 133 -9 19 -13 38 -10 41 3 3 -2 24
-12 48 -10 24 -17 60 -16 80 1 20 -3 39 -9 43 -19 11 -10 22 18 22 15 0 37 4
50 8 19 6 24 3 29 -14 4 -17 8 -19 19 -10 16 13 19 39 4 39 -5 0 -10 5 -10 10
0 6 5 10 11 10 5 0 27 11 47 25 27 18 31 25 18 25 -18 0 -18 1 -3 18 10 10 17
26 17 35 0 40 68 40 112 0 17 -15 20 -15 38 2 11 10 20 13 20 7 0 -7 6 -12 13
-12 7 0 19 -16 26 -35 7 -19 21 -40 32 -45 24 -13 25 -37 1 -44 -16 -5 -18
-17 -18 -89 1 -45 -3 -90 -8 -99 -6 -14 -4 -18 11 -18 26 0 53 -34 46 -59 -3
-12 -11 -21 -17 -21 -16 0 -59 -48 -74 -83 -13 -31 -41 -44 -127 -60 -33 -6
-62 -14 -65 -18 -3 -4 -14 -7 -25 -6 -15 2 -19 -3 -18 -20 2 -13 -2 -23 -7
-23 -22 0 -8 -29 20 -42 23 -10 30 -19 30 -40 0 -17 5 -28 14 -28 15 0 26 -30
26 -71 0 -14 -11 -40 -25 -59 -14 -19 -25 -43 -25 -54 0 -30 -10 -41 -55 -64
-22 -11 -47 -28 -56 -38 -18 -20 -32 -114 -18 -114 5 0 9 4 9 8 0 13 60 44
113 58 81 21 204 27 297 14 72 -10 118 -25 203 -68 4 -2 7 10 7 26 0 52 -55
112 -125 135 -12 4 13 83 32 98 20 17 16 32 -7 26 -15 -4 -27 4 -45 31 -29 42
-32 70 -9 79 8 3 20 16 24 29 8 20 14 23 40 18 20 -4 38 -1 56 11 17 11 50 18
88 19 86 3 210 60 220 102 11 41 24 54 56 54 40 0 73 57 74 131 1 42 -2 55
-12 52 -7 -3 -21 2 -31 11 -15 14 -17 22 -9 44 11 27 72 73 115 86 12 4 38 25
57 46 l36 40 -20 37 c-11 21 -20 48 -20 60 0 13 -9 32 -19 42 -16 16 -17 22
-7 31 8 5 21 8 30 4 11 -4 16 -1 16 10 0 9 -4 16 -9 16 -5 0 3 14 17 30 l27
31 13 -31 c8 -19 19 -30 32 -30 14 0 20 -7 20 -23 0 -29 52 -61 84 -53 16 4
29 -1 45 -20 19 -22 23 -23 37 -9 18 18 20 18 46 4 18 -10 25 -8 39 10 9 11
25 21 34 21 52 0 74 55 33 84 -28 20 -22 24 38 32 l49 7 -18 -21 c-22 -24 -17
-36 23 -57 25 -13 33 -13 67 1 48 20 47 18 31 43 -11 17 -10 25 5 50 9 16 17
39 17 51 0 15 5 20 18 18 12 -3 16 -12 14 -31 -4 -38 13 -33 36 11 13 25 25
36 38 34 11 -1 35 -4 54 -6 32 -3 37 -8 55 -57 23 -60 47 -70 55 -25 3 18 13
32 28 37 27 10 28 -1 4 -31 -28 -35 -16 -65 42 -107 28 -21 65 -52 83 -69 28
-29 40 -33 111 -39 44 -4 88 -4 99 -1 10 3 25 23 34 44 13 31 14 43 3 72 -17
49 -17 50 10 50 31 0 40 14 42 64 1 23 9 45 18 52 18 13 21 55 5 71 -8 8 -8
17 0 31 15 28 14 32 -8 32 -27 0 -37 19 -14 26 10 3 25 9 34 14 20 10 29 3 29
-22 0 -10 6 -19 13 -19 25 -3 53 -8 100 -17 27 -5 57 -7 68 -5 10 3 27 2 36
-3 10 -4 35 -9 56 -10 46 -3 54 -9 38 -27 -11 -14 -9 -72 3 -84 3 -4 20 -6 38
-6 34 0 73 36 63 60 -3 8 -5 26 -5 39 0 15 -6 24 -15 24 -26 0 -18 39 10 46
30 7 50 29 35 39 -19 12 -11 33 10 28 27 -7 26 14 -1 22 -20 7 -19 8 13 36 23
20 44 28 70 29 28 0 38 5 43 21 5 15 13 19 27 16 23 -6 75 43 84 80 5 19 11
22 33 17 36 -9 35 -8 7 -39 -29 -32 -33 -45 -11 -45 25 0 65 23 65 37 0 7 4
13 10 13 5 0 18 19 29 43 30 65 84 115 115 108 21 -5 66 22 66 40 0 23 18 25
26 4 9 -23 28 -18 52 15 28 38 30 74 3 65 -22 -7 -40 13 -21 25 9 5 7 17 -8
48 -20 41 -19 64 2 38 6 -8 36 -22 66 -31 30 -10 70 -26 88 -37 28 -17 43 -19
98 -13 68 7 134 29 146 49 17 25 8 91 -16 121 l-24 30 30 18 c24 14 29 22 23
40 -16 52 -17 70 -5 93 11 20 11 28 -1 50 -13 25 -12 28 29 65 28 24 53 38 70
38 35 0 64 5 79 14 7 4 29 10 50 12 21 3 55 8 76 11 41 7 41 6 27 -30 -6 -18
-6 -26 1 -26 6 0 9 -6 6 -14 -7 -18 12 -34 38 -32 54 4 86 54 58 92 -7 10 -13
26 -13 37 0 10 -5 17 -12 15 -12 -4 -38 14 -38 26 0 3 14 12 30 21 27 14 42
45 22 45 -8 0 -52 80 -52 94 0 3 11 6 25 6 13 0 32 9 42 19 10 11 31 24 46 30
31 12 40 54 10 49 -20 -3 -20 18 -1 88 8 28 16 40 25 37 7 -3 20 0 28 7 8 7
26 10 40 6 14 -4 34 -2 45 4 13 7 21 7 26 -2 4 -6 2 -14 -4 -16 -7 -2 -12 -10
-12 -18 0 -8 -5 -23 -12 -34 -7 -10 -9 -22 -5 -26 10 -11 57 24 67 51 5 12 13
26 18 29 13 8 13 74 0 82 -7 4 -14 2 -16 -4 -2 -7 -13 -10 -28 -6 -13 3 -31 1
-38 -6 -35 -28 -82 36 -51 70 18 20 84 32 102 18 8 -6 17 -1 28 15 19 29 48
39 79 27 27 -10 79 30 70 54 -7 19 7 21 24 4 17 -17 40 6 48 48 8 44 -1 70
-20 55 -19 -16 -46 -3 -46 24 0 12 -10 35 -21 50 -18 22 -20 29 -8 36 8 5 17
9 22 9 4 0 7 23 7 50 0 28 6 63 14 78 13 26 12 29 -10 51 -13 13 -24 27 -24
31 0 5 18 19 39 31 21 12 44 32 50 45 15 33 47 43 141 45 68 1 80 4 80 18 0 9
5 22 11 28 8 8 8 13 0 18 -8 4 -3 17 14 37 18 21 25 38 21 52 -3 12 -6 29 -6
39 0 10 -6 17 -12 16 -49 -6 -51 32 -5 75 50 46 73 84 58 99 -17 17 -14 24 14
31 27 7 30 20 15 60 -8 23 -13 25 -35 16 -28 -11 -30 -9 -38 44 -3 16 0 38 7
49 9 16 7 21 -11 34 -18 12 -20 19 -13 34 7 13 6 20 -3 26 -8 4 -13 22 -13 38
1 28 -2 30 -34 31 -36 0 -94 24 -74 31 6 2 9 26 8 56 -2 46 1 53 17 53 12 0
19 -7 19 -18 0 -24 17 -23 30 3 7 11 18 18 25 15 19 -7 28 9 19 37 -7 21 -7
21 -14 3 -4 -11 -9 -15 -13 -9 -3 5 0 19 8 29 12 15 16 16 24 6 4 -8 17 -12
27 -10 15 2 20 15 25 53 4 28 2 54 -2 60 -5 5 -9 15 -9 22 0 21 -49 63 -66 56
-8 -3 -14 -12 -14 -21 0 -13 -3 -12 -15 4 -19 25 -19 38 -1 31 20 -8 29 24 21
72 -4 27 -11 38 -23 37 -31 -2 -24 34 17 81 23 25 41 50 41 55 0 5 -16 22 -34
39 -21 18 -33 36 -29 45 3 7 8 12 12 10 3 -3 6 23 6 57 0 38 -5 62 -13 65 -7
2 -10 13 -6 28 4 15 2 24 -6 24 -6 0 -9 8 -6 18 9 27 -8 46 -37 38 -33 -8 -56
17 -36 40 11 14 11 18 -2 28 -8 6 -13 19 -11 29 4 21 22 23 22 1 0 -9 6 -14
13 -11 6 2 11 17 10 33 0 16 1 23 4 17 2 -7 14 -13 25 -13 11 0 18 5 15 13 -2
6 -10 11 -16 10 -6 -2 -11 4 -11 13 0 11 8 14 32 12 32 -3 33 -1 39 40 3 24 2
45 -3 48 -4 3 -8 13 -8 22 0 9 -12 26 -27 36 -23 17 -27 18 -38 3 -10 -14 -12
-14 -23 4 -10 15 -9 19 2 19 23 0 26 26 5 66 -10 21 -19 45 -19 52 0 8 -12 23
-26 35 l-26 20 23 19 c20 16 21 19 5 16 -10 -2 -27 -18 -37 -36 -17 -32 -18
-33 -29 -13 -8 17 -8 21 3 21 7 0 20 11 27 25 9 18 19 23 34 19 31 -7 71 71
62 122 -7 35 -9 36 -41 31 -19 -3 -35 -1 -37 4 -2 5 -22 10 -45 11 -23 1 -46
4 -51 7 -6 3 -12 32 -13 63 -4 50 -2 58 15 60 23 4 29 18 17 37 -8 12 -15 13
-35 3 -16 -7 -28 -8 -31 -2 -4 7 -13 6 -25 0 -26 -14 -26 -14 -40 20 -7 17
-16 30 -21 30 -13 0 -11 54 3 68 9 9 8 12 -4 12 -9 0 -19 -6 -21 -12 -3 -8 -6
-6 -6 5 -1 10 6 17 19 17 27 0 46 64 31 104 -9 22 -16 27 -32 23 -13 -3 -19
-1 -16 6 2 7 17 11 36 9 31 -3 32 -2 30 25 -2 15 0 33 4 40 4 6 3 14 -3 18 -5
3 -10 13 -10 21 0 16 -35 54 -50 54 -5 0 -13 -7 -17 -15 -7 -12 -10 -11 -21 5
-10 16 -10 20 2 20 18 0 26 33 12 52 -9 12 -22 14 -58 8 -35 -5 -51 -3 -62 8
-12 13 -20 12 -60 -3 -25 -10 -46 -22 -46 -26 0 -5 -4 -9 -10 -9 -5 0 -10 7
-10 16 0 11 -5 14 -16 10 -21 -8 -44 11 -44 36 0 14 5 18 16 14 10 -4 14 -1
12 6 -8 23 -38 21 -38 -1 0 -12 -6 -21 -15 -21 -14 0 -20 27 -17 73 1 9 -3 17
-8 17 -6 0 -10 7 -10 15 0 18 -26 20 -34 3 -3 -7 -3 -3 -1 9 3 12 3 33 -1 48
-5 21 -12 26 -33 24 -14 -1 -43 6 -63 15 -21 9 -42 16 -47 16 -5 0 -14 14 -20
30 -8 24 -7 30 5 30 15 0 19 25 5 35 -5 3 -16 -1 -24 -9 -11 -11 -17 -12 -26
-3 -14 14 -14 28 1 25 6 -2 14 5 16 15 3 16 -2 18 -47 14 -47 -4 -52 -3 -57
18 -4 16 -11 22 -21 18 -19 -7 -44 23 -36 42 2 8 12 11 21 7 15 -5 15 -4 3 11
-19 23 -41 21 -41 -4 0 -12 -5 -19 -12 -16 -13 4 -15 10 -17 58 0 14 -8 34
-16 45 -12 15 -16 16 -24 5 -7 -10 -18 -12 -47 -5 -22 4 -45 8 -51 9 -21 1
-44 43 -41 72 3 26 1 28 -29 25 -25 -3 -40 4 -65 27 -18 17 -36 31 -40 31 -4
0 -6 -19 -5 -42 2 -32 -2 -43 -15 -46 -10 -2 -19 5 -23 18 -4 12 -9 19 -12 16
-3 -3 -14 -1 -24 5 -23 12 -27 54 -4 45 8 -3 15 -1 15 3 0 8 -23 21 -36 21 -2
0 -4 -9 -4 -20 0 -11 -7 -20 -15 -20 -14 0 -20 27 -16 73 1 9 -3 17 -9 17 -6
0 -9 4 -6 9 3 5 -1 11 -9 15 -8 3 -15 1 -15 -4 0 -14 -33 -17 -59 -3 -14 6
-29 10 -33 6 -15 -9 -37 30 -38 64 0 30 -2 32 -28 27 -22 -5 -35 1 -61 25 -40
37 -50 39 -43 6 7 -40 -7 -93 -26 -97 -9 -2 -29 8 -44 23 -33 32 -35 43 -9 34
16 -5 19 -1 19 30 0 35 -12 47 -21 23 -4 -10 -6 -9 -6 1 -1 8 6 19 15 25 20
15 10 37 -29 61 -35 22 -77 22 -77 -1 0 -8 -6 -14 -13 -14 -8 0 -13 10 -13 23
1 16 -5 23 -21 25 -15 2 -23 -2 -23 -11 0 -18 -32 -47 -53 -47 -9 0 -17 -7
-17 -16 0 -16 -7 -15 -78 9 -20 7 -35 20 -38 34 -4 13 -10 23 -16 23 -5 0 -6
-9 -3 -20 10 -31 -25 -25 -59 11 -18 17 -52 36 -84 45 -39 12 -56 22 -62 40
-11 29 -24 32 -17 4 4 -14 0 -20 -12 -20 -9 0 -23 -6 -29 -12 -10 -10 -15 -10
-23 2 -9 13 -10 13 -6 -2 3 -9 3 -18 0 -21 -8 -9 -77 31 -103 58 -26 28 -45
33 -36 10 3 -8 1 -15 -4 -15 -6 0 -10 5 -10 10 0 15 -16 12 -34 -5 -18 -19
-26 -19 -26 -1 0 28 -30 39 -106 39 -41 0 -76 3 -79 7 -8 13 -187 2 -196 -11
-4 -6 -11 -9 -17 -5 -6 3 -19 -5 -30 -19 -13 -16 -23 -22 -27 -15 -5 8 -12 4
-22 -10 -14 -20 -16 -20 -40 -4 -15 9 -28 12 -32 7 -13 -20 -48 -21 -59 -2
-16 24 -15 29 3 29 24 0 17 17 -8 22 -39 8 -50 -1 -33 -27 8 -12 12 -25 9 -29
-13 -12 -32 -5 -38 14 -3 11 -13 20 -21 20 -8 0 -14 7 -14 15 0 14 -12 19 -32
16 -5 0 -8 4 -8 9 0 6 -9 10 -21 10 -13 0 -19 -5 -16 -13z m403 -84 c-6 -15
-9 -15 -16 -3 -6 9 -5 17 3 22 16 10 21 2 13 -19z m-569 -105 c-3 -8 -6 -5 -6
6 -1 11 2 17 5 13 3 -3 4 -12 1 -19z m-277 -77 c0 -12 -8 -16 -42 -25 -16 -3
-28 -2 -28 3 0 5 12 14 28 19 36 14 42 14 42 3z m-80 -32 c0 -6 -4 -7 -10 -4
-5 3 -10 11 -10 16 0 6 5 7 10 4 6 -3 10 -11 10 -16z m2120 -17 c3 -3 -6 -1
-19 3 -23 7 -23 6 -16 -40 6 -44 5 -47 -12 -40 -10 4 -49 18 -88 32 -85 31
-101 43 -54 43 18 0 40 4 48 9 7 5 26 5 42 1 18 -6 34 -4 46 5 17 13 22 12 53
-13z m-1740 -52 c-63 -23 -60 -23 -60 -11 0 13 48 29 85 30 25 0 20 -3 -25
-19z m110 16 c0 -3 -4 -8 -10 -11 -5 -3 -10 -1 -10 4 0 6 5 11 10 11 6 0 10
-2 10 -4z m-250 -36 c0 -5 -10 -10 -22 -10 -13 0 -36 -12 -53 -26 l-30 -25 40
6 40 7 -28 -26 c-31 -29 -79 -38 -57 -11 10 12 9 15 -8 15 -11 0 -25 7 -32 15
-10 12 -10 15 4 15 9 0 16 4 16 9 0 10 80 38 113 40 9 1 17 -3 17 -9z m65 -20
c-3 -5 -10 -10 -16 -10 -5 0 -9 5 -9 10 0 6 7 10 16 10 8 0 12 -4 9 -10z m203
-22 c27 -14 29 -38 2 -45 -11 -3 -20 -12 -20 -19 0 -16 -1 -16 61 -19 26 -1
52 -5 58 -9 18 -12 12 -36 -9 -36 -13 0 -18 -5 -14 -15 4 -8 15 -15 25 -15 10
0 19 -4 19 -10 0 -5 -17 -10 -39 -10 -42 0 -131 -35 -144 -56 -4 -8 -17 -14
-27 -14 -11 0 -25 -9 -32 -20 -7 -11 -21 -20 -30 -20 -10 0 -18 -3 -18 -7 0
-11 -50 -33 -72 -33 -10 0 -21 -6 -24 -14 -3 -8 -12 -12 -20 -9 -8 3 -14 -1
-14 -8 0 -18 -30 -49 -48 -49 -9 0 -13 7 -9 19 4 18 2 18 -20 8 -14 -6 -20
-13 -14 -15 20 -7 12 -18 -22 -30 -18 -6 -70 -11 -115 -10 -52 1 -87 -3 -94
-10 -7 -7 -41 -12 -80 -12 -58 0 -75 -4 -116 -30 -27 -16 -56 -30 -64 -30 -8
0 -18 -4 -23 -9 -38 -34 -160 -82 -127 -49 7 7 12 22 12 35 0 25 65 91 152
152 76 55 132 81 172 81 28 0 35 4 38 23 2 18 10 23 45 25 29 2 44 8 48 20 3
10 41 31 93 51 106 42 132 58 132 81 0 23 72 43 143 41 27 0 56 3 65 9 12 6
-9 9 -69 10 -47 0 -89 3 -92 7 -9 8 22 43 39 43 7 0 14 -6 17 -12 3 -10 11
-10 38 1 77 30 146 33 197 9z m1257 2 c11 -4 54 -18 95 -30 126 -38 235 -82
415 -171 141 -69 174 -88 309 -176 200 -132 367 -271 550 -461 72 -75 87 -96
133 -183 14 -28 36 -54 48 -59 22 -8 75 -68 75 -84 0 -4 11 -19 25 -34 34 -36
115 -154 152 -222 17 -30 39 -71 50 -91 12 -20 35 -69 52 -110 18 -41 38 -87
46 -104 24 -52 39 -137 38 -215 -1 -84 15 -158 47 -216 19 -36 49 -92 71 -136
5 -10 9 -27 9 -39 0 -11 4 -28 9 -37 12 -24 19 -223 7 -219 -5 2 -16 16 -25
33 -9 16 -26 39 -38 51 l-22 22 4 -92 c4 -77 3 -85 -5 -47 -14 65 -42 153 -52
165 -4 5 -8 16 -8 25 0 21 -23 70 -32 70 -5 0 -8 -18 -8 -40 0 -28 -4 -40 -14
-40 -16 0 -26 21 -26 52 0 28 -45 107 -79 138 -15 14 -34 40 -42 58 -14 33
-41 45 -33 14 3 -10 -10 -34 -32 -60 -33 -39 -35 -45 -24 -71 9 -23 9 -34 -1
-53 -11 -21 -30 -101 -46 -198 -3 -19 -14 -49 -24 -67 -20 -36 -26 -108 -9
-118 6 -3 10 -38 10 -76 0 -39 5 -80 11 -91 8 -14 8 -23 0 -31 -6 -6 -11 -26
-11 -44 0 -18 -4 -33 -10 -33 -5 0 -10 -11 -10 -24 0 -13 -6 -29 -13 -35 -19
-15 -41 11 -63 74 -9 28 -29 69 -45 92 -16 23 -29 48 -29 55 0 7 -20 47 -45
88 -25 41 -45 83 -45 92 0 9 -4 20 -10 23 -5 3 -10 13 -10 21 0 8 -9 34 -20
56 -11 23 -20 54 -20 69 0 15 -4 31 -10 34 -5 3 -10 15 -10 26 0 10 -4 19 -10
19 -5 0 -10 -13 -10 -28 0 -55 -36 -66 -85 -27 -28 24 -29 24 -10 44 18 21 18
21 -9 21 -28 0 -69 25 -122 73 -30 27 -33 28 -60 14 -16 -8 -45 -18 -64 -22
-19 -4 -39 -11 -45 -15 -13 -10 -174 -21 -201 -14 -11 3 -25 19 -31 35 -10 27
-43 42 -43 19 0 -16 -43 -34 -79 -31 -19 1 -46 11 -62 21 -15 11 -35 20 -46
20 -10 0 -27 12 -38 27 -48 65 -67 82 -88 80 -19 -1 -57 -31 -57 -44 0 -13 66
-97 90 -115 16 -12 34 -36 40 -54 13 -38 37 -52 36 -20 -1 12 5 21 14 21 15 0
17 -4 19 -54 1 -35 23 -43 81 -28 36 10 45 19 73 69 35 63 47 72 47 32 0 -35
50 -84 87 -84 40 -1 83 -42 83 -79 0 -16 -4 -33 -10 -36 -5 -3 -10 -14 -10
-24 0 -10 -7 -24 -16 -32 -10 -8 -14 -23 -11 -42 4 -29 -2 -39 -63 -103 -11
-12 -20 -29 -20 -38 0 -9 -8 -19 -17 -22 -60 -20 -104 -51 -111 -78 -6 -23
-21 -37 -61 -57 -30 -16 -63 -37 -75 -48 -25 -24 -112 -71 -130 -71 -6 0 -27
-11 -46 -25 -19 -14 -46 -25 -61 -25 -25 0 -29 6 -50 68 -13 37 -24 78 -25 92
-1 14 -2 30 -3 36 0 6 -19 31 -41 55 -22 24 -47 59 -55 76 -9 18 -29 40 -46
48 -38 20 -69 71 -69 113 0 27 -10 43 -50 81 -27 26 -50 51 -50 55 0 13 -111
156 -121 156 -5 0 -10 12 -10 28 l-2 27 -4 -28 c-3 -16 -11 -31 -18 -34 -14
-5 -45 18 -45 34 0 4 -9 19 -20 33 -18 23 -20 23 -20 5 0 -11 12 -33 26 -50
15 -16 37 -52 50 -80 28 -60 53 -102 77 -129 9 -11 17 -32 17 -48 0 -15 3 -28
8 -28 13 0 57 -44 69 -70 6 -14 14 -47 16 -75 4 -42 11 -54 46 -85 26 -23 48
-55 63 -94 20 -50 30 -62 70 -83 25 -13 72 -48 103 -76 53 -48 57 -55 46 -75
-6 -12 -8 -22 -3 -22 5 0 21 -11 36 -25 31 -29 41 -30 76 -10 14 8 35 14 47
15 12 0 28 7 37 15 8 8 26 15 40 15 14 0 28 5 31 10 3 6 16 10 28 10 12 0 33
9 47 20 45 35 54 27 47 -45 -7 -76 -110 -335 -150 -378 -7 -6 -24 -26 -39 -44
-14 -18 -53 -55 -85 -82 -33 -27 -82 -77 -109 -111 -27 -34 -67 -81 -89 -103
-21 -23 -59 -79 -83 -125 -41 -81 -42 -85 -26 -103 13 -14 17 -34 15 -69 -2
-50 14 -95 43 -119 11 -10 13 -18 6 -31 -6 -10 -8 -55 -6 -100 3 -77 2 -82
-26 -118 -30 -37 -44 -47 -108 -75 -31 -13 -72 -42 -157 -112 -24 -20 -24 -21
-8 -64 31 -88 11 -136 -68 -159 -48 -15 -73 -34 -63 -51 7 -11 -23 -91 -34
-91 -4 0 -40 -29 -79 -64 -108 -97 -194 -132 -331 -135 -30 -1 -80 -5 -110
-10 -56 -9 -77 -4 -112 27 -10 8 -18 26 -18 38 0 30 -70 127 -121 169 -13 11
-30 31 -36 45 -24 52 -53 142 -53 164 0 13 -7 30 -16 37 -9 7 -35 40 -57 74
-23 33 -49 69 -60 80 -15 16 -17 30 -13 75 9 99 18 130 48 162 39 42 44 75 19
130 -11 25 -18 54 -14 67 4 14 -6 45 -25 84 -17 34 -36 76 -42 93 -6 17 -39
60 -73 96 -34 35 -71 81 -81 101 -18 34 -18 38 -3 55 16 17 20 39 34 154 4 43
2 51 -25 78 -28 28 -35 30 -105 30 l-75 0 -12 34 c-6 19 -20 45 -31 57 -19 22
-28 24 -112 24 -70 -1 -107 -6 -155 -24 l-63 -23 -51 22 c-40 17 -64 21 -117
17 -36 -2 -76 -7 -87 -11 -24 -9 -56 19 -171 148 -49 54 -64 79 -73 119 -6 27
-26 78 -45 113 -20 35 -32 64 -29 64 4 0 -6 12 -21 26 -25 23 -27 30 -21 70 3
24 1 55 -4 68 -7 19 -5 30 9 48 9 13 23 39 31 58 7 19 17 39 22 45 4 5 8 35 8
66 0 32 5 61 10 64 14 8 13 41 -2 64 -10 16 -3 30 46 95 31 42 61 76 67 76 5
0 9 7 9 15 0 17 114 135 131 135 21 0 79 24 79 32 0 4 6 8 14 8 19 0 66 57 60
74 -3 7 10 35 28 62 26 39 44 53 88 71 40 16 62 32 83 63 l29 41 22 -20 c12
-11 45 -25 74 -31 43 -10 57 -9 83 4 18 9 40 16 50 16 10 0 21 4 24 10 8 12
405 11 405 -1 0 -5 7 -9 17 -9 14 0 14 -2 -2 -20 -14 -16 -16 -23 -7 -32 18
-18 14 -36 -13 -60 -14 -12 -25 -25 -25 -28 0 -14 89 -70 112 -70 39 0 107
-33 110 -54 3 -21 14 -27 73 -46 22 -7 53 -22 68 -32 24 -17 30 -18 45 -6 27
21 31 30 25 59 -4 22 0 31 23 45 35 23 103 23 116 0 5 -9 16 -16 24 -16 8 0
31 -7 52 -16 20 -9 55 -19 76 -21 22 -2 48 -9 57 -14 28 -15 82 -10 125 10 26
13 44 16 56 10 9 -5 39 -9 66 -9 55 0 55 0 82 100 6 25 16 53 22 63 6 12 5 30
-2 53 -7 20 -10 44 -7 55 4 16 1 18 -29 15 -18 -3 -43 -12 -56 -20 -28 -20
-62 -20 -78 -1 -7 8 -23 15 -35 15 -12 0 -28 -7 -35 -15 -16 -19 -44 -19 -60
-1 -6 8 -23 16 -38 18 -18 2 -31 12 -40 31 -7 15 -17 27 -22 27 -4 0 -7 15 -6
33 0 20 -3 31 -11 30 -8 -2 -10 8 -6 30 4 28 1 35 -21 45 -28 13 -76 1 -76
-19 0 -7 -9 -9 -25 -5 -29 7 -29 5 -13 -40 6 -18 20 -35 31 -38 23 -6 19 -42
-6 -40 -11 1 -18 -9 -23 -32 -3 -19 -12 -34 -18 -34 -23 0 -47 25 -50 53 -1
15 -18 46 -36 69 -26 32 -35 53 -38 95 l-5 54 -74 50 c-41 28 -78 61 -83 75
-6 14 -17 24 -30 24 -13 0 -20 7 -20 20 0 37 -33 19 -44 -22 -5 -22 -1 -32 19
-50 14 -12 25 -30 25 -41 0 -22 18 -42 48 -51 12 -4 22 -11 22 -16 0 -4 23
-22 50 -40 28 -18 50 -35 50 -39 0 -18 -14 -18 -33 0 -19 17 -23 18 -36 4 -13
-13 -13 -19 -3 -35 10 -17 8 -24 -15 -50 -14 -16 -35 -30 -45 -30 -12 0 -18
-7 -18 -24 0 -35 -16 -40 -49 -17 -16 12 -34 21 -40 21 -6 0 -11 2 -11 4 0 2
-3 12 -7 22 -5 15 -2 16 30 11 86 -14 141 17 116 66 -14 28 -79 87 -95 87 -20
0 -94 91 -94 115 0 13 -10 30 -24 38 -22 15 -27 14 -82 -14 -45 -24 -62 -28
-78 -21 -61 29 -90 21 -99 -28 -6 -25 -13 -32 -51 -42 -55 -15 -129 -78 -120
-102 7 -18 -4 -29 -68 -71 -29 -20 -51 -25 -97 -25 -33 0 -63 -4 -66 -10 -12
-19 -35 -10 -35 14 0 26 -23 51 -39 42 -5 -3 -16 -3 -25 0 -26 10 -9 98 31
156 18 28 33 58 33 68 0 11 5 22 10 25 6 3 10 17 10 30 0 35 48 41 135 15 38
-11 84 -20 101 -20 28 0 34 6 59 57 22 45 25 60 16 75 -6 10 -11 26 -11 35 0
10 -14 26 -31 36 -45 25 -32 43 30 39 46 -2 53 0 58 18 5 20 23 28 23 10 0 -5
9 -10 19 -10 11 0 23 5 26 10 3 6 14 10 23 10 10 0 23 9 29 19 7 11 29 25 50
31 21 7 52 27 70 46 22 24 42 35 65 36 18 1 40 2 48 4 8 1 21 2 28 3 8 1 12
19 12 53 0 52 19 88 47 88 7 0 13 5 13 10 0 6 7 10 15 10 15 0 13 -14 -8 -59
-9 -19 -9 -25 1 -28 6 -3 12 -9 12 -15 0 -5 -9 -6 -20 -3 -29 9 -26 -19 4 -35
18 -9 32 -10 54 -2 26 9 31 8 35 -8 4 -17 9 -17 45 -7 22 7 44 16 48 20 11 11
42 8 64 -5 15 -10 23 -10 28 -2 4 7 16 13 27 16 14 2 19 11 18 28 -3 42 17 80
41 80 12 0 27 -5 32 -10 8 -8 14 -7 23 3 14 17 4 47 -15 47 -8 0 -14 4 -14 8
0 20 28 32 71 32 26 0 59 7 75 15 l28 14 -24 9 c-13 5 -41 5 -64 0 -80 -18
-91 -18 -109 -4 -11 9 -20 30 -21 55 -3 39 0 44 45 82 59 49 63 69 14 69 -29
0 -36 -5 -50 -34 -10 -20 -29 -39 -46 -46 -61 -26 -90 -98 -49 -120 17 -9 18
-15 10 -31 -6 -11 -22 -24 -35 -29 -17 -7 -26 -20 -32 -52 -7 -36 -14 -45 -39
-53 -17 -6 -38 -15 -46 -22 -7 -7 -24 -10 -36 -6 -13 3 -22 1 -22 -6 0 -6 -7
-11 -15 -11 -24 0 -17 30 10 40 14 5 25 12 25 15 0 7 -20 93 -26 113 -3 9 -16
6 -51 -13 -40 -23 -50 -25 -69 -14 -19 10 -22 18 -18 48 9 74 26 102 76 127
26 13 52 24 58 24 31 0 194 145 186 165 -5 15 21 29 29 15 3 -5 17 3 31 17 14
14 31 22 40 19 8 -3 27 0 42 8 45 23 152 25 152 2 0 -8 17 -16 48 -20 103 -14
192 -51 192 -81 0 -23 -46 -38 -81 -26 -17 6 -43 11 -57 11 l-25 0 27 -26 c14
-15 26 -30 26 -35 0 -12 60 -42 68 -34 4 4 -2 13 -12 21 -26 19 -16 26 22 15
29 -9 32 -8 32 13 0 28 18 46 47 46 27 0 29 12 8 34 -21 20 -19 48 3 44 9 -2
17 -10 17 -18 0 -36 27 -31 65 10 31 34 44 41 63 36 14 -3 32 1 46 10 12 9 28
13 36 10 9 -3 15 1 15 9 0 8 -4 15 -10 15 -5 0 -10 5 -10 10 0 14 83 13 115
-2 14 -6 28 -8 32 -5 8 9 -27 36 -47 37 -21 1 -52 29 -72 67 -10 17 -18 33
-18 36 0 11 51 -7 66 -24 21 -24 32 -24 30 -2 0 11 13 25 34 35 l35 18 -33 0
c-33 0 -59 29 -34 38 16 5 15 22 -1 22 -24 0 -48 36 -45 66 2 22 -2 31 -19 39
-33 14 -28 22 17 29 50 8 84 0 133 -31 22 -14 41 -22 45 -19 3 3 1 6 -5 6 -6
0 -9 9 -6 20 3 11 9 20 14 20 5 0 9 5 9 10 0 6 -7 10 -15 10 -8 0 -15 5 -15
11 0 6 14 9 31 7 17 -2 31 1 31 7 0 11 -60 45 -80 45 -17 0 -62 30 -62 42 0
10 50 3 85 -12z m-161 -5 c15 -11 16 -15 5 -15 -8 0 -24 7 -35 15 -14 11 -15
14 -4 14 8 0 24 -6 34 -14z m-1660 -37 c-2 -7 -22 -22 -44 -32 -22 -10 -37
-23 -34 -28 3 -4 -3 -11 -13 -14 -10 -3 -27 -10 -38 -15 -11 -5 -38 -11 -60
-13 -42 -3 -77 -18 -107 -43 -9 -8 -21 -12 -27 -9 -14 9 51 66 75 66 9 0 26 7
36 17 11 9 18 11 18 5 0 -7 8 -12 18 -12 14 0 15 2 2 10 -20 12 -17 14 80 48
99 36 101 36 94 20z m56 2 c0 -5 -9 -10 -20 -10 -11 0 -20 5 -20 10 0 6 9 10
20 10 11 0 20 -4 20 -10z m80 -9 c0 -15 -50 -50 -64 -45 -7 3 -19 -2 -26 -11
-7 -8 -16 -15 -21 -15 -5 0 -36 -18 -70 -40 -34 -22 -70 -40 -80 -40 -17 0
-111 -65 -117 -82 -2 -4 -11 -8 -21 -8 -9 0 -22 -5 -29 -12 -6 -6 -15 -9 -18
-5 -4 3 1 13 10 22 31 32 11 35 -25 5 -37 -33 -81 -57 -116 -63 -18 -4 -33 -4
-33 0 0 10 54 53 68 53 6 0 12 4 12 8 0 5 11 15 25 22 14 7 25 19 25 26 0 16
23 24 39 14 15 -9 79 8 102 27 8 7 21 13 28 13 19 0 93 43 123 71 27 26 51 39
103 57 39 13 85 15 85 3z m1373 -70 c17 -17 -1 -25 -28 -13 -14 7 -35 12 -45
12 -11 0 -20 4 -20 10 0 12 80 4 93 -9z m57 9 c20 -12 9 -21 -18 -13 -12 3
-19 9 -16 14 7 11 15 11 34 -1z m1277 -111 c2 -34 -10 -51 -30 -43 -17 6 -24
54 -10 68 14 14 38 0 40 -25z m-1660 15 c-3 -3 -12 -4 -19 -1 -8 3 -5 6 6 6
11 1 17 -2 13 -5z m1503 -18 c0 -8 6 -17 13 -19 9 -4 9 -6 0 -6 -7 -1 -17 8
-23 19 -7 14 -7 20 0 20 5 0 10 -6 10 -14z m-1710 -12 c0 -11 -8 -14 -27 -12
-39 4 -42 28 -4 28 21 0 31 -5 31 -16z m-55 -17 c7 -9 17 -17 24 -17 6 0 11
-7 11 -15 0 -20 -17 -19 -30 3 -9 16 -11 15 -29 -5 -23 -27 -56 -32 -47 -7 4
10 -1 22 -10 29 -10 6 -14 17 -10 23 10 17 76 9 91 -11z m545 -11 c0 -7 -7
-19 -15 -26 -10 -8 -15 -30 -15 -61 0 -45 3 -51 35 -71 56 -37 46 -48 -25 -26
-30 10 -41 19 -44 38 -17 95 -17 97 11 129 29 33 53 41 53 17z m-1917 -26 c-3
-11 -11 -20 -18 -20 -8 0 -27 -13 -43 -30 -17 -16 -34 -30 -38 -30 -12 0 -94
-54 -94 -62 0 -12 35 -9 48 4 7 7 12 8 12 4 0 -10 -19 -27 -86 -76 -60 -44
-124 -109 -124 -126 0 -7 -9 -18 -20 -24 -11 -6 -20 -17 -20 -24 0 -26 -63
-70 -101 -70 -21 -1 -41 -4 -45 -8 -12 -12 -24 2 -24 28 0 24 -13 30 -44 18
-10 -4 -14 -14 -11 -28 4 -16 -3 -26 -29 -43 -41 -26 -103 -113 -81 -113 8 0
15 -4 15 -8 0 -10 -67 -32 -95 -32 -17 0 -17 1 0 20 10 11 24 20 32 20 7 0 13
5 13 10 0 22 -48 8 -86 -24 -21 -18 -50 -37 -64 -41 -20 -6 -13 6 35 56 172
180 337 329 365 329 12 0 25 10 32 25 6 13 19 27 30 30 10 4 30 17 46 29 15
12 55 33 90 45 34 13 87 41 116 62 30 22 59 39 64 39 14 0 96 43 100 53 8 17
30 6 25 -13z m-276 -106 c-3 -3 -12 -4 -19 -1 -8 3 -5 6 6 6 11 1 17 -2 13 -5z
m2163 -124 c0 -5 -4 -10 -10 -10 -5 0 -10 5 -10 10 0 6 5 10 10 10 6 0 10 -4
10 -10z m-1374 -20 c6 -6 33 -12 60 -14 40 -3 50 -8 52 -24 4 -25 -32 -52 -70
-52 -14 0 -38 -4 -51 -9 -20 -8 -29 -6 -42 9 -19 21 -12 60 11 60 8 0 12 5 9
10 -7 11 2 30 14 30 4 0 12 -5 17 -10z m-1311 -10 c3 -6 -1 -7 -9 -4 -18 7
-21 14 -7 14 6 0 13 -4 16 -10z m315 -220 c0 -5 -3 -10 -7 -10 -17 0 -63 -48
-63 -66 -1 -22 -76 -111 -86 -101 -4 3 -2 13 5 21 9 10 9 20 -1 42 -10 22 -10
28 0 32 7 2 19 10 26 18 8 8 18 14 23 14 4 1 26 14 48 30 43 31 55 36 55 20z
m-625 -40 c3 -5 1 -10 -4 -10 -6 0 -11 5 -11 10 0 6 2 10 4 10 3 0 8 -4 11
-10z m1775 -90 c0 -5 -4 -10 -10 -10 -5 0 -10 -4 -10 -10 0 -5 9 -10 20 -10
28 0 25 -15 -7 -38 -23 -17 -26 -23 -15 -33 6 -7 12 -23 12 -35 0 -13 5 -26
11 -30 6 -4 9 -19 5 -36 -4 -20 -1 -30 9 -34 21 -8 19 -28 -5 -49 -11 -10 -20
-23 -20 -30 0 -9 -29 -12 -101 -11 -99 0 -101 1 -79 18 12 10 32 18 44 18 17
1 16 3 -9 14 l-30 13 23 14 c12 7 22 22 22 31 0 13 8 18 25 18 29 0 43 25 28
49 -6 9 -11 36 -11 59 -1 33 5 50 26 72 26 28 72 41 72 20z m-1767 -40 c-3
-11 -9 -17 -15 -14 -5 3 -4 12 3 20 16 19 18 18 12 -6z m2477 -4 c0 -8 -4 -18
-10 -21 -5 -3 -10 3 -10 14 0 12 5 21 10 21 6 0 10 -6 10 -14z m-120 -41 c0
-8 -4 -15 -10 -15 -5 0 -7 7 -4 15 4 8 8 15 10 15 2 0 4 -7 4 -15z m-730 -45
c0 -10 -9 -24 -20 -30 -11 -6 -20 -19 -20 -29 0 -28 -30 -48 -82 -54 -58 -8
-72 8 -35 38 15 11 27 31 27 43 0 21 9 26 36 23 6 -1 17 6 24 14 7 8 25 15 41
15 22 0 29 -5 29 -20z m3950 -430 c0 -5 -2 -10 -4 -10 -3 0 -8 5 -11 10 -3 6
-1 10 4 10 6 0 11 -4 11 -10z m-5982 -163 c-7 -14 -13 -17 -16 -9 -6 19 6 44
18 37 7 -4 6 -14 -2 -28z m2352 -25 c0 -19 -18 -42 -32 -42 -12 0 -9 35 4 48
17 17 28 15 28 -6z m-16 -109 c-3 -21 -9 -41 -13 -45 -12 -12 -46 -13 -45 0 1
6 2 28 3 47 1 32 4 35 31 35 30 0 31 -1 24 -37z m-254 -8 c0 -8 -7 -15 -15
-15 -8 0 -15 7 -15 15 0 8 7 15 15 15 8 0 15 -7 15 -15z m3979 -250 c0 -5 -4
-3 -9 5 -5 8 -9 22 -9 30 0 16 17 -16 18 -35z m-3069 -12 c25 -9 -20 -21 -57
-16 -47 7 -43 30 5 25 20 -2 44 -6 52 -9z m360 4 c0 -21 -51 -42 -61 -25 -10
15 -2 24 26 31 33 8 35 8 35 -6z m-3450 -480 c0 -43 -5 -58 -22 -73 -21 -19
-21 -19 -14 6 3 14 9 46 13 73 8 64 23 60 23 -6z m6215 -96 c3 -5 1 -12 -5
-16 -5 -3 -10 1 -10 9 0 18 6 21 15 7z m-6210 -212 c22 -29 34 -88 45 -212 8
-89 9 -137 1 -157 -8 -24 -7 -30 4 -30 8 0 17 -12 21 -27 4 -16 11 -32 18 -38
17 -15 56 -95 56 -115 0 -9 28 -46 63 -81 35 -36 75 -89 90 -121 16 -32 39
-66 52 -77 45 -35 70 -214 36 -255 -28 -34 -42 -158 -22 -195 12 -22 64 -301
58 -308 -3 -2 -14 0 -25 6 -42 22 -42 -15 -1 -98 17 -34 28 -65 25 -68 -3 -4
-6 -1 -6 6 0 6 -8 21 -18 32 -38 40 -196 358 -251 504 -13 33 -27 69 -31 80
-14 34 -29 78 -40 120 -6 22 -16 56 -21 75 -17 60 -30 112 -59 248 -6 26 -13
84 -17 130 -3 45 -9 82 -12 82 -9 0 -35 382 -27 407 3 10 8 76 11 148 4 77 11
135 18 144 10 11 13 -6 17 -86 3 -55 10 -106 15 -114z m5965 46 c0 -12 7 -28
15 -35 27 -22 43 -73 48 -147 3 -57 1 -73 -9 -73 -8 0 -14 10 -14 24 0 14 -4
28 -10 31 -5 3 -10 27 -10 53 -1 32 -10 67 -30 107 -29 58 -37 95 -23 108 9 9
33 -40 33 -68z m5 -234 c13 -23 31 -51 41 -62 9 -10 18 -34 18 -52 1 -17 5
-38 10 -46 10 -15 9 -164 -1 -231 l-7 -45 -9 45 c-4 25 -12 72 -17 105 -21
142 -40 203 -90 282 -12 18 -12 24 0 38 18 22 29 16 55 -34z m-405 -21 c23
-44 26 -98 8 -123 -24 -31 -38 -4 -45 81 -7 93 4 106 37 42z m770 16 c0 -3 -4
-8 -10 -11 -5 -3 -10 -1 -10 4 0 6 5 11 10 11 6 0 10 -2 10 -4z m-1820 -105
c0 -12 -20 -25 -27 -18 -7 7 6 27 18 27 5 0 9 -4 9 -9z m-4650 -841 c8 -5 12
-11 9 -14 -3 -3 -14 1 -25 9 -21 16 -8 20 16 5z m90 -275 l0 -40 -16 30 c-8
17 -16 35 -17 40 -1 6 -6 13 -12 18 -6 4 -5 10 4 16 22 14 40 -16 41 -64z
m4358 -202 c6 -15 12 -51 12 -81 0 -44 -3 -53 -15 -48 -10 3 -15 -1 -15 -13 0
-44 -172 -389 -201 -402 -8 -3 -24 -11 -36 -17 -30 -16 -78 -15 -90 1 -6 6
-13 35 -16 62 -5 46 -3 54 33 106 37 53 38 58 28 92 -16 52 12 103 70 128 64
28 132 80 132 100 0 10 9 23 21 29 11 7 25 25 31 41 12 36 29 37 46 2z m202
-323 c0 -5 -2 -10 -4 -10 -3 0 -8 5 -11 10 -3 6 -1 10 4 10 6 0 11 -4 11 -10z
m1081 -145 c0 -6 -10 -12 -23 -13 -19 -4 -20 -2 -9 12 15 17 33 18 32 1z
m-5241 -485 c0 -5 -4 -10 -10 -10 -5 0 -10 5 -10 10 0 6 5 10 10 10 6 0 10 -4
10 -10z m4045 -650 c3 -5 1 -10 -4 -10 -6 0 -11 5 -11 10 0 6 2 10 4 10 3 0 8
-4 11 -10z m-1935 -486 c0 -8 -5 -12 -10 -9 -6 4 -8 11 -5 16 9 14 15 11 15
-7z m435 -34 c-3 -5 -13 -10 -21 -10 -8 0 -14 5 -14 10 0 6 9 10 21 10 11 0
17 -4 14 -10z m-2754 -1560 c5 0 9 -11 9 -25 0 -21 -5 -25 -30 -25 -25 0 -30
4 -30 23 0 29 9 39 28 32 7 -3 18 -5 23 -5z m9 -105 c0 -21 -5 -25 -30 -25
-25 0 -30 4 -30 25 0 21 5 25 30 25 25 0 30 -4 30 -25z m-10 -91 c0 -20 -5
-24 -30 -24 -25 0 -30 4 -30 23 0 31 5 35 35 29 18 -3 25 -11 25 -28z m0 -79
c0 -21 -5 -25 -30 -25 -25 0 -30 4 -30 25 0 21 5 25 30 25 25 0 30 -4 30 -25z
m-10 -90 c0 -21 -5 -25 -30 -25 -25 0 -30 4 -30 25 0 21 5 25 30 25 25 0 30
-4 30 -25z m-16 -61 c9 -3 16 -17 16 -30 0 -20 -5 -24 -30 -24 -27 0 -30 3
-30 30 0 30 11 37 44 24z m6 -109 c0 -21 -5 -25 -30 -25 -22 0 -30 5 -30 18 0
25 9 32 37 32 18 0 23 -5 23 -25z m0 -90 c0 -21 -5 -25 -30 -25 -25 0 -30 4
-30 25 0 21 5 25 30 25 25 0 30 -4 30 -25z m-6 -63 c12 -19 -7 -52 -30 -52
-28 0 -35 10 -27 38 5 22 46 32 57 14z m-4 -107 c0 -21 -5 -25 -30 -25 -25 0
-30 4 -30 25 0 21 5 25 30 25 25 0 30 -4 30 -25z m-13 -65 c9 0 13 -8 11 -22
-2 -17 -11 -24 -30 -26 -25 -3 -28 0 -28 28 0 25 3 31 16 26 9 -3 22 -6 31 -6z
m3 -111 c0 -28 -3 -31 -22 -25 -13 3 -26 6 -30 6 -5 0 -8 11 -8 25 0 21 5 25
30 25 27 0 30 -3 30 -31z m0 -84 c0 -21 -5 -25 -30 -25 -25 0 -30 4 -30 25 0
21 5 25 30 25 25 0 30 -4 30 -25z m-8 -60 c3 -3 3 -17 0 -30 -3 -20 -10 -25
-33 -25 -24 0 -29 4 -29 23 0 13 3 27 7 30 8 8 47 9 55 2z m-2 -110 c0 -21 -5
-25 -30 -25 -25 0 -30 4 -30 25 0 21 5 25 30 25 25 0 30 -4 30 -25z m-2 -71
c2 -1 1 -12 -3 -23 -4 -15 -15 -21 -36 -21 -24 0 -29 4 -29 23 0 13 3 27 6 30
6 6 53 -1 62 -9z m-8 -99 c0 -21 -5 -25 -30 -25 -25 0 -30 4 -30 25 0 21 5 25
30 25 25 0 30 -4 30 -25z m0 -90 c0 -22 -4 -25 -35 -25 -19 0 -35 4 -35 9 0
27 15 41 41 41 24 0 29 -4 29 -25z m-10 -85 c0 -27 -3 -30 -30 -30 -27 0 -30
3 -30 30 0 27 3 30 30 30 27 0 30 -3 30 -30z m0 -85 c0 -21 -5 -25 -30 -25
-25 0 -30 4 -30 25 0 21 5 25 30 25 25 0 30 -4 30 -25z m-10 -90 c0 -21 -5
-25 -30 -25 -25 0 -30 4 -30 25 0 21 5 25 30 25 25 0 30 -4 30 -25z m0 -86 c0
-27 -3 -30 -27 -27 -22 2 -29 9 -31 31 -3 24 0 27 27 27 28 0 31 -3 31 -31z
m-10 -84 c0 -21 -5 -25 -30 -25 -25 0 -30 4 -30 25 0 21 5 25 30 25 25 0 30
-4 30 -25z m-22 -61 c15 -4 22 -14 22 -30 0 -20 -5 -24 -30 -24 -27 0 -30 3
-30 30 0 32 2 33 38 24z m17 -114 c0 -14 -6 -25 -12 -24 -7 1 -22 2 -33 3 -12
0 -20 8 -20 19 0 26 10 33 40 30 19 -2 25 -9 25 -28z"/>
<path d="M4798 12203 c6 -2 18 -2 25 0 6 3 1 5 -13 5 -14 0 -19 -2 -12 -5z"/>
<path d="M6027 11873 c-7 -6 55 -53 71 -53 16 0 52 -46 52 -68 0 -24 10 -28
27 -11 9 9 9 17 0 32 -21 34 -57 67 -76 67 -10 0 -26 9 -36 20 -19 21 -28 24
-38 13z"/>
<path d="M7070 11610 c37 -47 52 -58 44 -33 -6 17 -61 73 -71 73 -3 0 10 -18
27 -40z"/>
<path d="M7130 11530 c0 -5 5 -10 11 -10 5 0 7 5 4 10 -3 6 -8 10 -11 10 -2 0
-4 -4 -4 -10z"/>
<path d="M6975 11060 c-3 -5 1 -10 10 -10 9 0 13 5 10 10 -3 6 -8 10 -10 10
-2 0 -7 -4 -10 -10z"/>
<path d="M6894 11026 c-8 -21 -1 -49 14 -54 8 -2 12 7 12 26 0 17 6 33 13 35
6 3 2 6 -11 6 -12 1 -25 -5 -28 -13z"/>
<path d="M6166 10833 c-56 -58 -64 -78 -40 -104 9 -10 22 -29 28 -41 6 -12 38
-45 71 -73 60 -50 60 -51 55 -95 -8 -72 -3 -84 50 -108 54 -25 99 -28 133 -9
12 6 23 12 24 12 6 2 -26 79 -39 94 -8 9 -17 25 -21 34 -3 9 -14 17 -22 17
-25 0 -13 34 13 38 29 4 28 18 -5 47 -28 23 -28 23 -39 3 -11 -20 -12 -19 -22
11 -6 17 -17 31 -25 31 -7 0 -29 15 -48 33 -33 30 -34 34 -21 60 7 15 20 27
28 27 11 0 14 9 12 33 -3 30 -6 32 -45 35 -38 3 -45 -1 -87 -45z"/>
<path d="M6496 10871 c-3 -5 1 -11 9 -15 8 -3 15 -13 15 -22 0 -14 -2 -14 -16
-3 -14 12 -16 11 -13 -6 3 -11 9 -20 16 -20 6 0 15 -3 19 -7 12 -13 32 -9 38
8 12 32 -51 93 -68 65z"/>
<path d="M5718 10807 c-46 -24 -56 -33 -47 -44 6 -7 22 -13 35 -13 12 0 26 -4
29 -10 3 -5 -2 -10 -12 -10 -10 0 -33 -9 -51 -20 -34 -21 -52 -19 -52 6 0 8
-8 14 -17 14 -13 0 -14 3 -5 12 18 18 15 41 -4 34 -10 -4 -25 1 -36 11 -18 16
-20 15 -53 -17 -19 -18 -32 -37 -29 -41 2 -5 -4 -17 -16 -29 -11 -11 -20 -28
-20 -39 0 -10 -7 -24 -15 -31 -19 -16 -19 -49 0 -74 10 -14 31 -21 69 -24 45
-4 61 0 98 22 44 26 105 34 124 18 38 -34 186 -42 222 -13 47 40 17 73 -136
146 -51 24 -53 26 -38 47 9 12 16 33 16 45 0 14 6 23 15 23 8 0 15 5 15 10 0
17 -33 9 -92 -23z"/>
<path d="M5397 10506 c-3 -8 -4 -16 -1 -19 9 -8 67 8 72 21 6 18 -64 16 -71
-2z"/>
<path d="M5190 10380 c0 -5 5 -10 10 -10 6 0 10 5 10 10 0 6 -4 10 -10 10 -5
0 -10 -4 -10 -10z"/>
<path d="M5730 8384 c-45 -19 -50 -28 -50 -93 0 -41 3 -52 11 -44 7 7 24 9 39
7 25 -5 30 -1 59 55 l31 60 -28 15 c-24 12 -32 12 -62 0z"/>
<path d="M5545 8115 c5 -51 13 -77 29 -95 12 -14 27 -37 34 -52 10 -25 32 -39
32 -21 0 21 -46 103 -57 103 -9 0 -12 7 -9 18 7 22 -9 91 -24 106 -10 8 -11
-5 -5 -59z"/>
<path d="M5795 7823 c3 -94 17 -136 42 -126 10 4 12 8 5 11 -8 2 -12 28 -12
72 0 65 -14 120 -30 120 -4 0 -6 -35 -5 -77z"/>
<path d="M3400 11730 c0 -5 4 -10 9 -10 6 0 13 5 16 10 3 6 -1 10 -9 10 -9 0
-16 -4 -16 -10z"/>
<path d="M6330 12525 c-10 -12 -10 -15 4 -15 9 0 16 7 16 15 0 8 -2 15 -4 15
-2 0 -9 -7 -16 -15z"/>
<path d="M8060 11509 c0 -14 20 -20 36 -11 14 8 12 10 -10 14 -14 3 -26 2 -26
-3z"/>
<path d="M8626 9801 c-4 -7 -5 -15 -2 -18 9 -9 19 4 14 18 -4 11 -6 11 -12 0z"/>
<path d="M1976 8361 c-10 -15 22 -20 34 -5 10 11 9 14 -8 14 -12 0 -23 -4 -26
-9z"/>
<path d="M2310 7155 c-16 -57 -7 -67 28 -32 14 15 21 27 14 27 -6 0 -12 11
-12 25 0 40 -16 29 -30 -20z"/>
<path d="M5205 5730 c-3 -5 -2 -10 4 -10 5 0 13 5 16 10 3 6 2 10 -4 10 -5 0
-13 -4 -16 -10z"/>
<path d="M4611 5580 c-21 -29 -21 -30 -2 -30 12 0 20 9 24 28 7 37 4 37 -22 2z"/>
<path d="M3520 5281 c0 -6 -19 -21 -41 -34 -39 -24 -40 -26 -21 -36 26 -14 52
-4 52 19 0 10 7 23 15 30 17 14 20 30 5 30 -5 0 -10 -4 -10 -9z"/>
<path d="M3550 4416 c-70 -15 -115 -39 -137 -72 -17 -27 -15 11 -62 -939 -11
-225 -25 -477 -31 -560 -5 -82 -15 -251 -20 -375 -6 -124 -13 -267 -17 -317
l-6 -93 74 -34 c41 -18 161 -75 268 -125 l193 -92 179 97 179 97 -5 61 c-3 34
-15 246 -26 471 -11 226 -24 448 -29 495 -5 47 -11 182 -15 300 -3 118 -12
301 -20 405 -8 105 -18 278 -21 385 -5 151 -10 201 -23 223 -19 33 -77 63
-150 77 -72 13 -263 11 -331 -4z"/>
<path d="M2255 1920 c-324 -154 -673 -320 -775 -368 l-185 -88 -3 -250 -2
-249 -368 -211 -367 -211 -3 -86 c-3 -80 -4 -86 -25 -89 -22 -3 -22 -6 -25
-185 l-2 -183 2910 0 2910 0 0 240 0 239 -37 11 c-21 5 -209 63 -418 129
l-380 119 -5 447 -5 447 -585 193 -584 194 -247 -134 -247 -135 -133 64 c-74
35 -264 125 -424 201 -159 76 -312 148 -339 161 -28 13 -55 24 -60 24 -6 -1
-276 -127 -601 -280z m603 -757 l-3 -978 -750 0 -750 0 -3 611 -2 610 507 250
c280 137 614 301 743 366 129 64 241 117 248 117 10 1 12 -198 10 -976z m1452
384 l0 -443 -233 -127 c-128 -70 -236 -127 -240 -127 -4 0 -7 198 -7 439 l0
440 228 130 c125 71 233 130 240 130 9 1 12 -94 12 -442z m320 76 c0 -147 -2
-164 -16 -159 -9 3 -49 16 -90 29 l-74 22 0 167 0 167 90 -31 90 -30 0 -165z
m285 79 l80 -27 3 -162 c3 -189 12 -178 -108 -135 l-75 27 -3 163 c-2 126 0
162 10 161 7 0 49 -12 93 -27z m373 -116 l67 -23 3 -161 c3 -187 11 -175 -103
-139 l-70 23 -3 168 c-2 166 -2 167 19 161 11 -4 51 -17 87 -29z m-978 -966
l0 -440 -445 0 -445 0 2 191 3 191 435 249 c239 136 438 248 443 249 4 0 7
-198 7 -440z m-3020 -75 l0 -365 -65 0 -65 0 0 241 c0 189 -3 240 -12 236 -7
-3 -103 -56 -213 -119 l-200 -114 -5 -120 -5 -119 -66 -3 -66 -3 -7 154 c-4
84 -4 160 -1 168 5 10 688 409 703 409 1 0 2 -164 2 -365z"/>
<path d="M2594 1897 l-181 -90 -7 -120 c-3 -66 -6 -159 -6 -207 l0 -86 183 90
182 91 8 160 c4 88 6 181 5 206 l-3 47 -181 -91z"/>
<path d="M2105 1655 l-180 -93 -8 -197 c-4 -109 -5 -200 -2 -203 3 -4 87 34
185 83 l179 89 5 41 c9 76 16 375 8 374 -4 -1 -88 -43 -187 -94z"/>
<path d="M1599 1400 l-177 -89 -6 -123 c-7 -142 -12 -288 -10 -288 1 0 85 41
186 90 l185 90 6 128 c9 169 9 282 0 281 -5 0 -87 -40 -184 -89z"/>
<path d="M4073 1801 c-84 -43 -159 -84 -168 -91 -12 -10 -15 -41 -15 -166 0
-117 3 -154 13 -154 6 0 84 38 172 84 l160 83 3 162 c1 88 -1 161 -5 161 -5 0
-77 -36 -160 -79z"/>
<path d="M4153 894 l-103 -56 0 -119 c0 -65 3 -119 6 -119 3 0 50 24 105 53
l99 52 0 123 c0 67 -1 122 -2 122 -2 0 -49 -26 -105 -56z"/>
<path d="M3868 739 l-108 -60 0 -120 c0 -67 3 -119 8 -117 4 2 53 28 110 58
l102 54 0 123 c0 68 -1 123 -2 123 -2 0 -51 -27 -110 -61z"/>
<path d="M3573 581 l-103 -56 0 -123 0 -124 98 52 c53 29 103 57 110 63 13 10
18 248 5 246 -5 -1 -54 -27 -110 -58z"/>
</g>
</svg>
